<?xml version="1.0" encoding="UTF-8" standalone="no"?>
<!DOCTYPE svg PUBLIC "-//W3C//DTD SVG 1.1//EN" "http://www.w3.org/Graphics/SVG/1.1/DTD/svg11.dtd">
<svg version="1.1" xmlns="http://www.w3.org/2000/svg" xmlns:xlink="http://www.w3.org/1999/xlink" preserveAspectRatio="xMidYMid meet" viewBox="0 0 640 640" width="640" height="640"><defs><path d="M335.53 79.51L342.6 90.55L349.59 101.35L356.48 111.91L363.28 122.24L369.97 132.35L376.56 142.24L383.03 151.93L389.38 161.43L395.61 170.73L401.71 179.86L407.67 188.81L413.48 197.61L419.16 206.25L424.67 214.75L430.03 223.11L435.22 231.35L440.25 239.47L445.1 247.48L449.76 255.39L454.24 263.2L458.53 270.93L462.62 278.59L466.5 286.19L470.17 293.72L473.63 301.21L476.87 308.65L479.88 316.07L482.66 323.46L485.2 330.84L487.5 338.21L489.55 345.58L491.34 352.97L492.87 360.38L494.14 367.82L495.14 375.29L495.85 382.82L496.29 390.39L496.43 398.04L496.29 405.68L495.85 413.24L495.13 420.71L494.14 428.1L492.87 435.39L491.34 442.57L489.55 449.65L487.5 456.62L485.2 463.46L482.66 470.18L479.88 476.76L476.87 483.21L473.63 489.51L470.17 495.66L466.5 501.66L462.61 507.49L458.52 513.16L454.24 518.65L449.76 523.96L445.09 529.09L440.24 534.02L435.22 538.76L430.03 543.29L424.67 547.61L419.15 551.72L413.48 555.6L407.66 559.26L401.7 562.68L395.6 565.87L389.38 568.8L383.02 571.49L376.55 573.92L369.96 576.08L363.27 577.98L356.47 579.6L349.58 580.94L342.59 581.99L335.52 582.75L328.37 583.21L321.15 583.37L313.92 583.21L306.77 582.75L299.7 581.99L292.72 580.94L285.82 579.6L279.02 577.98L272.33 576.08L265.74 573.92L259.27 571.49L252.92 568.8L246.69 565.86L240.59 562.68L234.63 559.26L228.82 555.6L223.14 551.71L217.63 547.61L212.27 543.28L207.07 538.75L202.05 534.02L197.2 529.08L192.54 523.96L188.06 518.65L183.77 513.15L179.68 507.49L175.8 501.65L172.13 495.66L168.67 489.51L165.43 483.2L162.42 476.76L159.64 470.17L157.1 463.46L154.8 456.61L152.75 449.65L151.26 443.77L151.15 443.45L149.41 437.53L147.89 431.52L146.59 425.42L145.51 419.23L144.67 412.96L144.06 406.61L143.69 400.19L143.57 393.7L143.69 387.21L144.06 380.77L144.67 374.38L145.51 368.04L146.59 361.72L147.89 355.43L149.42 349.15L151.16 342.89L153.11 336.63L155.26 330.36L157.62 324.09L160.18 317.79L162.93 311.47L165.87 305.11L168.99 298.71L172.29 292.26L175.76 285.76L179.12 279.7L179.69 278.59L183.77 270.93L188.06 263.2L192.54 255.38L197.21 247.47L202.05 239.47L207.08 231.35L212.27 223.11L217.63 214.75L223.15 206.25L228.82 197.61L234.64 188.81L240.6 179.86L246.7 170.73L252.92 161.42L259.28 151.93L265.75 142.24L272.34 132.35L279.03 122.24L285.83 111.91L292.72 101.35L299.71 90.55L306.78 79.51L313.93 68.2L321.15 56.63L328.38 68.2L335.53 79.51ZM280.22 123.19L274.21 132.57L268.28 141.74L262.43 150.71L256.66 159.48L250.97 168.07L245.38 176.47L239.88 184.7L234.49 192.76L229.2 200.66L224.02 208.41L218.96 216.02L214.01 223.49L209.2 230.83L204.51 238.05L199.96 245.15L195.55 252.14L191.28 259.04L187.17 265.84L183.2 272.55L179.4 279.19L179.12 279.7L175.8 286.18L172.13 293.72L168.67 301.2L165.43 308.65L162.42 316.06L159.64 323.45L157.1 330.83L154.8 338.2L152.75 345.58L150.96 352.97L149.43 360.38L148.16 367.81L147.16 375.29L146.45 382.81L146.01 390.39L145.87 398.03L146.01 405.67L146.45 413.23L147.16 420.71L148.16 428.09L149.43 435.38L150.96 442.57L151.26 443.77L153.11 449.26L155.26 454.96L157.62 460.55L160.18 466.03L162.93 471.38L165.87 476.61L168.99 481.7L172.29 486.65L175.76 491.46L179.4 496.13L183.2 500.64L187.16 504.99L191.28 509.18L195.55 513.2L199.96 517.05L204.51 520.72L209.2 524.21L214.01 527.51L218.95 530.62L224.01 533.52L229.19 536.23L234.48 538.72L239.88 541.01L245.37 543.07L250.97 544.91L256.65 546.52L262.42 547.89L268.28 549.03L274.21 549.93L280.21 550.57L286.29 550.96L292.42 551.09L298.56 550.96L304.63 550.57L310.64 549.93L316.57 549.03L322.42 547.9L328.2 546.52L333.88 544.91L339.47 543.07L344.97 541.01L350.37 538.72L355.66 536.23L360.83 533.53L365.9 530.62L370.84 527.51L375.65 524.21L380.34 520.73L384.89 517.06L389.3 513.21L393.57 509.18L397.68 504.99L401.65 500.64L405.45 496.13L409.09 491.47L412.56 486.66L415.86 481.7L418.98 476.61L421.92 471.38L424.67 466.03L427.23 460.56L429.59 454.97L431.74 449.26L433.7 443.45L435.44 437.54L436.96 431.53L438.26 425.42L439.34 419.23L440.18 412.96L440.79 406.61L441.16 400.19L441.24 396.14L441.33 395.13L441.63 390.03L441.73 384.87L441.63 379.71L441.33 374.59L440.85 369.51L440.18 364.46L439.32 359.44L438.29 354.44L437.08 349.45L435.69 344.47L434.14 339.49L432.43 334.5L430.55 329.51L428.51 324.51L426.33 319.48L423.99 314.42L421.51 309.33L418.89 304.21L416.13 299.03L414.83 296.69L412.56 292.26L409.09 285.76L405.45 279.19L401.65 272.56L397.69 265.84L393.57 259.04L389.3 252.14L384.89 245.15L380.34 238.05L375.66 230.83L370.84 223.49L365.9 216.02L360.84 208.41L355.66 200.66L350.37 192.76L344.98 184.7L339.48 176.47L333.89 168.07L328.2 159.49L322.43 150.71L316.57 141.75L310.64 132.57L304.64 123.19L298.56 113.59L292.43 103.77L286.29 113.59L280.22 123.19ZM333.06 169.76L337.84 177.22L342.56 184.51L347.21 191.64L351.8 198.62L356.32 205.44L360.77 212.12L365.14 218.67L369.43 225.08L373.64 231.36L377.75 237.53L381.78 243.58L385.71 249.52L389.54 255.35L393.26 261.09L396.88 266.74L400.39 272.3L403.78 277.78L407.06 283.19L410.21 288.53L413.23 293.81L414.83 296.69L415.86 298.71L418.98 305.11L421.92 311.47L424.67 317.79L427.23 324.09L429.59 330.37L431.75 336.63L433.7 342.89L435.44 349.16L436.96 355.43L438.26 361.72L439.34 368.04L440.18 374.39L440.79 380.78L441.16 387.21L441.28 393.7L441.24 396.14L440.85 400.18L440.18 405.17L439.32 410.09L438.29 414.95L437.08 419.73L435.69 424.43L434.14 429.05L432.42 433.59L430.55 438.03L428.51 442.39L426.33 446.64L423.99 450.8L421.51 454.85L418.89 458.79L416.13 462.61L413.23 466.32L410.21 469.91L407.05 473.37L403.78 476.7L400.39 479.9L396.88 482.96L393.26 485.88L389.54 488.65L385.71 491.28L381.78 493.75L377.75 496.06L373.63 498.21L369.43 500.19L365.14 502.01L360.77 503.65L356.32 505.11L351.8 506.39L347.21 507.49L342.55 508.39L337.83 509.1L333.06 509.61L328.23 509.92L323.35 510.03L318.47 509.92L313.64 509.61L308.87 509.1L304.15 508.39L299.49 507.49L294.9 506.39L290.38 505.11L285.93 503.65L281.56 502.01L277.27 500.19L273.07 498.21L268.95 496.06L264.92 493.75L261 491.28L257.17 488.65L253.44 485.88L249.82 482.96L246.31 479.9L242.92 476.7L239.65 473.37L236.5 469.91L233.47 466.32L230.58 462.61L227.82 458.79L225.19 454.85L222.71 450.8L220.38 446.64L218.19 442.39L216.16 438.03L214.28 433.59L212.56 429.05L211.01 424.43L209.63 419.72L208.42 414.94L207.38 410.09L206.53 405.17L205.85 400.18L205.37 395.13L205.08 390.03L204.98 384.87L205.08 379.71L205.37 374.59L205.85 369.51L206.53 364.46L207.38 359.44L208.42 354.43L209.63 349.44L211.01 344.46L212.56 339.48L214.28 334.5L216.16 329.51L218.19 324.5L220.38 319.47L222.71 314.42L225.19 309.33L227.82 304.2L230.58 299.03L233.47 293.81L236.5 288.53L239.65 283.19L242.92 277.78L246.32 272.3L249.82 266.74L253.44 261.09L257.17 255.35L261 249.51L264.93 243.57L268.95 237.53L273.07 231.36L277.28 225.08L281.57 218.67L285.94 212.12L290.39 205.44L294.91 198.62L299.5 191.64L304.15 184.51L308.87 177.22L313.65 169.76L318.47 162.12L323.35 154.31L328.23 162.12L333.06 169.76ZM291.15 210.14L287.68 215.57L284.25 220.88L280.86 226.06L277.52 231.14L274.23 236.11L270.99 240.97L267.81 245.73L264.69 250.39L261.63 254.97L258.64 259.45L255.71 263.85L252.85 268.17L250.06 272.42L247.35 276.6L244.72 280.71L242.16 284.75L239.7 288.74L237.31 292.68L235.02 296.56L232.82 300.4L230.71 304.2L228.7 307.97L226.8 311.7L224.99 315.4L223.29 319.08L221.7 322.74L220.22 326.38L218.85 330.01L217.6 333.64L216.48 337.26L215.47 340.89L214.59 344.52L213.83 348.16L213.21 351.81L212.72 355.48L212.37 359.18L212.16 362.9L212.08 366.66L212.16 370.41L212.37 374.13L212.72 377.8L213.21 381.43L213.83 385.01L214.59 388.54L215.47 392.02L216.48 395.44L217.6 398.81L218.85 402.11L220.22 405.34L221.7 408.51L223.29 411.61L224.99 414.63L226.79 417.58L228.7 420.44L230.71 423.23L232.82 425.93L235.02 428.54L237.31 431.06L239.69 433.48L242.16 435.81L244.71 438.03L247.35 440.16L250.06 442.18L252.85 444.09L255.7 445.88L258.63 447.57L261.63 449.13L264.69 450.57L267.81 451.89L270.99 453.09L274.23 454.15L277.52 455.08L280.86 455.88L284.24 456.54L287.68 457.06L291.15 457.43L294.67 457.65L298.22 457.73L301.77 457.65L305.28 457.43L308.75 457.06L312.19 456.54L315.57 455.88L318.91 455.08L322.2 454.15L325.44 453.09L328.62 451.89L331.74 450.57L334.8 449.13L337.8 447.57L340.73 445.88L343.59 444.09L346.37 442.18L349.08 440.16L351.72 438.04L354.27 435.81L356.74 433.48L359.12 431.06L361.41 428.54L363.61 425.93L365.72 423.23L367.73 420.45L369.64 417.58L371.44 414.63L373.14 411.61L374.73 408.51L376.21 405.35L377.58 402.11L378.83 398.81L379.96 395.45L380.96 392.03L381.85 388.55L382.6 385.02L383.22 381.43L383.71 377.8L384.06 374.13L384.28 370.42L384.35 366.66L384.28 362.91L384.06 359.18L383.71 355.49L383.22 351.81L382.6 348.16L381.85 344.52L380.96 340.89L379.96 337.26L378.83 333.64L377.58 330.02L376.22 326.38L374.74 322.74L373.14 319.08L371.45 315.4L369.64 311.7L367.73 307.97L365.72 304.21L363.62 300.41L361.42 296.57L359.12 292.68L356.74 288.74L354.27 284.75L351.72 280.71L349.09 276.6L346.38 272.42L343.59 268.17L340.73 263.85L337.8 259.45L334.8 254.97L331.74 250.39L328.62 245.73L325.44 240.97L322.21 236.11L318.92 231.14L315.58 226.06L312.19 220.88L308.76 215.57L305.28 210.14L301.77 204.59L298.22 198.9L294.67 204.59L291.15 210.14ZM327.51 251.55L329.92 255.32L332.3 258.99L334.65 262.59L336.97 266.11L339.25 269.55L341.49 272.92L343.69 276.22L345.86 279.46L347.98 282.63L350.06 285.74L352.09 288.79L354.07 291.78L356 294.73L357.88 297.62L359.7 300.47L361.47 303.28L363.18 306.04L364.84 308.77L366.43 311.46L367.95 314.13L369.41 316.76L370.8 319.37L372.13 321.95L373.38 324.52L374.56 327.07L375.66 329.61L376.69 332.13L377.63 334.65L378.5 337.16L379.28 339.68L379.98 342.19L380.59 344.7L381.11 347.23L381.54 349.76L381.88 352.31L382.13 354.87L382.27 357.45L382.32 360.05L382.27 362.66L382.13 365.23L381.88 367.78L381.54 370.29L381.11 372.78L380.59 375.23L379.98 377.64L379.28 380.01L378.5 382.34L377.63 384.63L376.68 386.87L375.66 389.07L374.56 391.21L373.38 393.31L372.13 395.35L370.8 397.34L369.41 399.27L367.95 401.14L366.42 402.95L364.83 404.69L363.18 406.37L361.47 407.99L359.7 409.53L357.88 411L356 412.4L354.07 413.73L352.08 414.97L350.05 416.14L347.98 417.22L345.86 418.22L343.69 419.14L341.49 419.97L339.24 420.7L336.96 421.35L334.65 421.9L332.3 422.36L329.92 422.72L327.51 422.97L325.08 423.13L322.62 423.18L320.15 423.13L317.72 422.97L315.31 422.72L312.93 422.36L310.58 421.9L308.27 421.35L305.99 420.7L303.74 419.97L301.54 419.14L299.37 418.22L297.25 417.22L295.18 416.14L293.15 414.97L291.16 413.73L289.23 412.4L287.35 411L285.53 409.53L283.76 407.99L282.05 406.37L280.4 404.69L278.81 402.95L277.28 401.14L275.82 399.27L274.43 397.34L273.1 395.35L271.85 393.31L270.68 391.21L269.57 389.07L268.55 386.87L267.6 384.63L266.73 382.34L265.95 380.01L265.25 377.63L264.64 375.22L264.12 372.78L263.69 370.29L263.35 367.78L263.11 365.23L262.96 362.66L262.91 360.05L262.95 357.74L263.07 355.43L263.26 353.15L263.53 350.88L263.87 348.62L264.29 346.37L264.78 344.12L265.33 341.88L265.96 339.65L266.65 337.41L267.41 335.18L268.24 332.94L269.12 330.69L270.07 328.44L271.08 326.18L272.15 323.91L273.27 321.62L274.46 319.31L275.69 316.99L276.98 314.65L278.33 312.29L279.72 309.9L281.17 307.49L282.66 305.05L284.2 302.58L285.78 300.07L287.41 297.53L289.08 294.96L290.79 292.35L292.55 289.69L294.34 286.99L296.17 284.25L298.03 281.46L299.93 278.62L301.87 275.73L303.83 272.79L305.83 269.79L307.86 266.73L309.91 263.62L311.99 260.44L312.25 260.05L312.51 259.65L312.77 259.25L313.03 258.85L313.29 258.45L313.55 258.05L313.81 257.64L314.07 257.24L314.33 256.83L314.59 256.43L314.86 256.02L315.12 255.61L315.38 255.2L315.65 254.79L315.91 254.38L316.18 253.97L316.44 253.56L316.71 253.14L316.97 252.73L317.24 252.31L317.5 251.89L317.77 251.48L318.04 251.06L318.3 250.64L318.57 250.22L318.84 249.79L319.11 249.37L319.37 248.94L319.64 248.52L319.91 248.09L320.18 247.66L320.45 247.23L320.72 246.8L320.99 246.37L321.26 245.94L321.53 245.51L321.8 245.07L322.07 244.64L322.35 244.2L322.62 243.76L325.08 247.7L327.51 251.55Z" id="a1RoDaKNoq"></path><linearGradient id="gradientf2HpwSwkvJ" gradientUnits="userSpaceOnUse" x1="324.55" y1="62.69" x2="324.55" y2="550.3"><stop style="stop-color: #ffffff;stop-opacity: 1" offset="0%"></stop><stop style="stop-color: #FF0073;stop-opacity: 1" offset="100%"></stop></linearGradient></defs><g><g><g><use xlink:href="#a1RoDaKNoq" opacity="1" fill="url(#gradientf2HpwSwkvJ)"></use><g><use xlink:href="#a1RoDaKNoq" opacity="1" fill-opacity="0" stroke="#151515" stroke-width="18" stroke-opacity="1"></use></g></g></g></g></svg>